<?xml version="1.0" encoding="UTF-8" standalone="no"?>
<!-- Created with Inkscape (http://www.inkscape.org/) -->

<svg
   width="287.24411"
   height="287.24408"
   viewBox="0 0 76.000006 75.999996"
   version="1.1"
   id="svg1"
   sodipodi:docname="logo-black-bg.svg"
   inkscape:version="1.4.2 (f4327f4, 2025-05-13)"
   xmlns:inkscape="http://www.inkscape.org/namespaces/inkscape"
   xmlns:sodipodi="http://sodipodi.sourceforge.net/DTD/sodipodi-0.dtd"
   xmlns="http://www.w3.org/2000/svg"
   xmlns:svg="http://www.w3.org/2000/svg">
  <sodipodi:namedview
     id="namedview1"
     pagecolor="#505050"
     bordercolor="#eeeeee"
     borderopacity="1"
     inkscape:showpageshadow="0"
     inkscape:pageopacity="0"
     inkscape:pagecheckerboard="0"
     inkscape:deskcolor="#505050"
     inkscape:export-bgcolor="#00000000"
     inkscape:zoom="1.751124"
     inkscape:cx="143.62204"
     inkscape:cy="132.2008"
     inkscape:window-width="1366"
     inkscape:window-height="705"
     inkscape:window-x="-8"
     inkscape:window-y="-8"
     inkscape:window-maximized="1"
     inkscape:current-layer="svg1" />
  <defs
     id="defs1" />
  <circle
     style="fill:#000000;fill-rule:evenodd;stroke-width:0.63;stroke-miterlimit:3.7;stroke-dasharray:none"
     id="path4-7"
     cx="38.000004"
     cy="38"
     r="38"
     inkscape:export-filename="logo-black-bg.svg"
     inkscape:export-xdpi="96"
     inkscape:export-ydpi="96" />
  <path
     d="m 13.635261,46.418094 q 0.07294,-0.09377 0.145872,-0.213598 0.07815,-0.119823 0.145873,-0.260486 -0.06773,-0.08335 -0.104195,-0.18234 -0.03647,-0.09898 -0.03647,-0.250066 0,-0.114614 0.01042,-0.19797 0.01042,-0.08857 0.01042,-0.156291 0,-0.07294 -0.04168,-0.18234 -0.04168,-0.109404 -0.104194,-0.208389 -0.05731,-0.104194 -0.125033,-0.17713 -0.06773,-0.07294 -0.125033,-0.07294 -0.07815,0 -0.239647,0.140662 -0.156292,0.140662 -0.349051,0.359471 -0.18755,0.213598 -0.385519,0.474084 -0.19797,0.260486 -0.349052,0.505342 -0.16671,0.270906 -0.302163,0.510553 -0.130243,0.239647 -0.208389,0.411567 -0.135452,0.302164 -0.192759,0.526182 -0.0521,0.224018 -0.0521,0.416777 0,0.323002 0.114613,0.323002 0.104195,0 0.281325,-0.08335 0.18234,-0.08857 0.385519,-0.218808 0.208389,-0.130243 0.411568,-0.286535 0.203179,-0.161501 0.343841,-0.307373 0.291744,-0.302163 0.474084,-0.515762 0.18755,-0.218808 0.291744,-0.354261 z m 5.590027,-1.323268 q 0,0.104195 -0.07815,0.270906 -0.07294,0.161501 -0.203179,0.35947 -0.125033,0.197969 -0.291744,0.416777 -0.166711,0.218809 -0.349051,0.432407 -0.18234,0.213598 -0.36989,0.411568 -0.18234,0.192759 -0.343841,0.343841 -0.171921,0.156291 -0.390729,0.354261 -0.213599,0.192759 -0.458455,0.36468 -0.239647,0.171921 -0.494923,0.291744 -0.250067,0.114614 -0.489714,0.114614 -0.17713,0 -0.343841,-0.08336 -0.234437,-0.109404 -0.385519,-0.333422 -0.151082,-0.224017 -0.244857,-0.494923 -0.08857,-0.276115 -0.125033,-0.567859 -0.03647,-0.296954 -0.04689,-0.54702 -0.104194,0.208389 -0.265695,0.453245 -0.161501,0.239647 -0.354261,0.479294 -0.192759,0.239647 -0.401148,0.463665 -0.203179,0.224018 -0.401148,0.406358 -0.515762,0.474084 -1.062783,0.713731 -0.54702,0.239647 -1.140928,0.239647 -0.208388,0 -0.36468,-0.104194 -0.151082,-0.109404 -0.250066,-0.270905 -0.09899,-0.166711 -0.145872,-0.359471 -0.04689,-0.197969 -0.04689,-0.3751 0,-0.244856 0.02084,-0.421987 0.02605,-0.17713 0.06773,-0.296953 0.213598,-0.635586 0.489713,-1.208655 0.281325,-0.578278 0.677263,-1.130508 0.109404,-0.156292 0.260486,-0.338632 0.151082,-0.18234 0.317793,-0.354261 0.17192,-0.17192 0.349051,-0.317793 0.17713,-0.151081 0.343841,-0.234437 0.203179,-0.104194 0.479294,-0.156291 0.281325,-0.05731 0.651215,-0.05731 0.140662,0 0.255276,0.08856 0.114614,0.08336 0.208388,0.224018 0.09378,0.135452 0.161502,0.317793 0.07294,0.17713 0.114613,0.36468 0.02605,-0.151082 0.0521,-0.354261 0.02605,-0.203179 0.04689,-0.427197 0.02605,-0.224018 0.04689,-0.448035 0.02605,-0.224018 0.04168,-0.416778 0.02084,-0.203179 0.04168,-0.463665 0.02605,-0.265695 0.0521,-0.510552 0.03126,-0.250066 0.06252,-0.442826 0.03647,-0.192759 0.07294,-0.255276 0.07294,-0.135453 0.208388,-0.208389 0.140663,-0.07294 0.364681,-0.07294 0.09898,0 0.17713,0.02084 0.07815,0.01563 0.166711,0.05731 0.276115,0.109404 0.276115,0.307373 0,0.08336 -0.03647,0.291745 -0.03647,0.203179 -0.09898,0.55223 -0.06252,0.349051 -0.151081,0.859603 -0.08857,0.505342 -0.19276,1.198235 -0.06252,0.406358 -0.09378,0.755409 -0.03126,0.349051 -0.03126,0.708521 0,0.03126 0.0052,0.166711 0.01042,0.130243 0.02605,0.307373 0.02084,0.177131 0.04689,0.3751 0.03126,0.197969 0.07294,0.36468 0.04168,0.161502 0.09898,0.270906 0.06252,0.109404 0.135453,0.109404 0.119823,0 0.265695,-0.06773 0.151082,-0.07294 0.312583,-0.18234 0.161502,-0.114614 0.328213,-0.260486 0.166711,-0.145872 0.323002,-0.296954 0.156292,-0.151081 0.296954,-0.296953 0.140662,-0.145872 0.244857,-0.255277 0.296954,-0.312583 0.578278,-0.604327 0.281325,-0.296954 0.505343,-0.520971 0.01563,-0.01563 0.05731,-0.02605 0.04689,-0.01563 0.09378,-0.02605 0.04689,-0.01042 0.08856,-0.01563 0.04168,-0.0052 0.0521,-0.0052 0.04168,0 0.06252,0.03126 0.02605,0.03126 0.03647,0.08335 0.01042,0.04689 0.01042,0.109404 0.0052,0.06252 0.0052,0.130243 z m 3.693689,0.338632 q 0,0.17713 -0.17713,0.302164 -0.171921,0.119823 -0.56265,0.208388 -0.17192,0.04168 -0.333422,0.08857 -0.156291,0.04168 -0.317792,0.119824 -0.156292,0.07815 -0.333422,0.208389 -0.171921,0.130242 -0.385519,0.343841 -0.276115,0.281325 -0.494923,0.599117 -0.218809,0.312583 -0.385519,0.672054 -0.161502,0.354261 -0.281325,0.760618 -0.114614,0.401149 -0.18755,0.859604 -0.01563,0.03647 -0.03647,0.06252 -0.01563,0.02605 -0.03126,0.04168 -0.01042,0.02084 -0.02084,0.03126 -0.08856,0.09898 -0.203179,0.140663 -0.109404,0.04168 -0.265696,0.04168 -0.203179,0 -0.317792,-0.114614 -0.109405,-0.109404 -0.161502,-0.265696 -0.0521,-0.151082 -0.06252,-0.312583 -0.01042,-0.161501 -0.01042,-0.265695 0,-0.109404 0.01563,-0.317793 0.02084,-0.208389 0.04168,-0.442826 0.02084,-0.239647 0.03647,-0.479294 0.02084,-0.244857 0.02084,-0.427197 0,-0.135452 -0.01042,-0.36468 -0.0052,-0.229228 -0.01563,-0.489713 -0.0052,-0.260486 -0.01563,-0.515762 -0.0052,-0.255277 -0.0052,-0.432407 0,-0.140662 0.0521,-0.265695 0.05731,-0.125034 0.145872,-0.213599 0.08856,-0.09378 0.203179,-0.145872 0.119823,-0.05731 0.244856,-0.05731 0.151082,0 0.270906,0.05731 0.119823,0.05731 0.197969,0.151082 0.08335,0.09378 0.125033,0.213598 0.04168,0.114614 0.04168,0.239647 0,0.05731 -0.01042,0.18755 -0.0052,0.125033 -0.02084,0.286534 -0.01042,0.156292 -0.03126,0.328213 -0.01563,0.17192 -0.03126,0.317792 -0.01563,0.140663 -0.03126,0.244857 -0.01563,0.09898 -0.02605,0.119824 0.234437,-0.453246 0.520972,-0.833555 0.286534,-0.385519 0.619956,-0.656424 0.333422,-0.276115 0.698102,-0.427197 0.36989,-0.156292 0.765829,-0.156292 0.119823,0 0.255276,0.03126 0.135452,0.02605 0.250066,0.09377 0.114614,0.06773 0.18755,0.171921 0.07294,0.104194 0.07294,0.260486 z m 2.688213,-0.609537 q 0,-0.114614 -0.02605,-0.218808 -0.02084,-0.104194 -0.07294,-0.130243 -0.177131,0 -0.38031,0.151082 -0.197969,0.151082 -0.380309,0.432406 -0.18234,0.276115 -0.328212,0.672054 -0.140662,0.390729 -0.208389,0.870023 0.244857,-0.182341 0.489714,-0.38031 0.250066,-0.203179 0.448035,-0.421987 0.203179,-0.218808 0.328212,-0.458455 0.130243,-0.244857 0.130243,-0.515762 z m 4.06358,0.958588 q 0,0.09378 -0.140663,0.343841 -0.270905,0.390729 -0.604327,0.776248 -0.328212,0.380309 -0.703312,0.724151 -0.375099,0.343841 -0.781457,0.640795 -0.406358,0.291744 -0.823136,0.505343 -0.416777,0.213598 -0.833554,0.338631 -0.411568,0.119824 -0.807506,0.119824 -0.890862,0 -1.390995,-0.500133 -0.494923,-0.505343 -0.494923,-1.521238 0,-0.406357 0.05731,-0.797086 0.05731,-0.395939 0.18755,-0.776248 0.135452,-0.385519 0.349051,-0.755409 0.213598,-0.36989 0.526181,-0.718941 0.114614,-0.130243 0.265696,-0.250066 0.156291,-0.119824 0.328212,-0.213599 0.17713,-0.09378 0.36468,-0.151082 0.19276,-0.05731 0.380309,-0.05731 0.276115,0 0.474085,0.104194 0.203179,0.104194 0.333422,0.281325 0.130243,0.17192 0.192759,0.401148 0.06252,0.224018 0.06252,0.474084 0,0.463665 -0.343842,0.963798 -0.343841,0.494923 -0.953378,1.015894 -0.197969,0.166711 -0.458455,0.364681 -0.260486,0.192759 -0.583488,0.437616 0.01042,0.130243 0.07294,0.244857 0.06773,0.114613 0.17713,0.203179 0.114614,0.08336 0.270906,0.135452 0.156291,0.04689 0.35426,0.04689 0.255276,0 0.541811,-0.06252 0.286534,-0.06773 0.567859,-0.17713 0.281325,-0.109404 0.54702,-0.250067 0.265696,-0.145872 0.484504,-0.302163 0.385519,-0.276115 0.73978,-0.593908 0.35947,-0.323003 0.692892,-0.656424 l 0.276115,-0.276115 q 0.286535,-0.255277 0.489714,-0.255277 0.104194,0 0.140662,0.07294 0.04168,0.06773 0.04168,0.119824 z m 2.21413,-1.166977 q 0,-0.01563 -0.01042,-0.05731 -0.0052,-0.04689 -0.01563,-0.07294 -0.17192,0.02084 -0.380309,0.135453 -0.203179,0.109404 -0.442826,0.338632 -0.234437,0.229227 -0.505342,0.593907 -0.270906,0.359471 -0.56786,0.880443 -0.07814,0.140662 -0.166711,0.307373 -0.08856,0.161501 -0.166711,0.349051 -0.07294,0.18755 -0.119823,0.401148 -0.04689,0.208389 -0.04689,0.442826 0,0.08856 0.04689,0.135453 0.0521,0.04168 0.104194,0.04168 0.119824,0 0.307374,-0.135452 0.192759,-0.140663 0.411567,-0.36989 0.224018,-0.229228 0.453246,-0.520972 0.234437,-0.296954 0.432406,-0.604327 0.197969,-0.312583 0.343841,-0.614747 0.151082,-0.307373 0.208389,-0.55223 0.01563,-0.07814 0.03647,-0.18234 0.02084,-0.104194 0.03647,-0.203179 0.02084,-0.104194 0.03126,-0.187549 0.01042,-0.08336 0.01042,-0.125034 z m 4.204242,0.656425 q 0,0.09378 -0.03126,0.197969 -0.03126,0.104194 -0.08335,0.208389 -0.04689,0.104194 -0.109404,0.208388 -0.06252,0.104195 -0.130243,0.19276 -0.302164,0.406358 -0.651215,0.765828 -0.343841,0.354261 -0.692892,0.666844 -0.18755,0.166711 -0.385519,0.302164 -0.197969,0.135452 -0.395939,0.234437 -0.197969,0.09898 -0.385519,0.151082 -0.18755,0.0521 -0.349051,0.0521 -0.197969,0 -0.380309,-0.125033 -0.18234,-0.125034 -0.323003,-0.312583 -0.135452,-0.19276 -0.218808,-0.411568 -0.07814,-0.218808 -0.07814,-0.406358 -0.06252,0.09378 -0.182341,0.250066 -0.119823,0.156292 -0.250066,0.317793 -0.130243,0.161501 -0.244857,0.296954 -0.109404,0.130243 -0.156291,0.18755 -0.166711,0.17713 -0.385519,0.36468 -0.218808,0.18755 -0.437616,0.338632 -0.213599,0.151081 -0.401149,0.250066 -0.18755,0.09378 -0.286534,0.09378 -0.229228,0 -0.442826,-0.07294 -0.213598,-0.07294 -0.380309,-0.208389 -0.161502,-0.140662 -0.260486,-0.343841 -0.09899,-0.203179 -0.09899,-0.463665 0,-0.255276 0.06773,-0.55744 0.07294,-0.307373 0.19276,-0.635585 0.125033,-0.333422 0.296954,-0.672054 0.17192,-0.338631 0.36989,-0.656424 0.203179,-0.323002 0.427197,-0.609537 0.224017,-0.286534 0.458455,-0.510552 0.416777,-0.395939 0.885652,-0.583488 0.468874,-0.18755 0.969007,-0.18755 0.130243,0 0.218808,0.03647 0.08857,0.03647 0.151082,0.09898 0.06252,0.05731 0.104194,0.135453 0.04689,0.07815 0.08336,0.156292 0.02605,0.03647 0.08335,0.104194 0.06252,0.06252 0.125033,0.140662 0.06252,0.07815 0.109404,0.156292 0.04689,0.07815 0.04689,0.140662 0,0.109404 -0.03126,0.239647 -0.03126,0.125033 -0.06773,0.291744 -0.03126,0.166711 -0.06252,0.38031 -0.03126,0.208388 -0.03126,0.484503 0,0.156292 0.02084,0.364681 0.02605,0.208388 0.07294,0.390728 0.04689,0.18234 0.114614,0.312583 0.07294,0.125034 0.161501,0.125034 0.109404,0 0.19276,-0.02084 0.08857,-0.02605 0.166711,-0.06773 0.07814,-0.04689 0.156291,-0.109404 0.08336,-0.06252 0.18755,-0.135452 0.323002,-0.234438 0.646005,-0.541811 0.328212,-0.307373 0.666844,-0.630376 0.09378,-0.08857 0.192759,-0.197969 0.104194,-0.109404 0.208389,-0.203179 0.109404,-0.09378 0.213598,-0.156291 0.104195,-0.06252 0.197969,-0.06252 0.145873,0 0.145873,0.244857 z m 10.820581,0.505342 q 0,0.04689 -0.02605,0.125033 -0.02084,0.07294 -0.05731,0.161502 -0.03647,0.08335 -0.08856,0.17192 -0.04689,0.08857 -0.09378,0.166711 -0.08336,0.130243 -0.224018,0.302164 -0.140662,0.171921 -0.312583,0.35947 -0.17192,0.18755 -0.36468,0.3751 -0.192759,0.18755 -0.380309,0.349051 -0.151082,0.125033 -0.354261,0.276115 -0.203179,0.151082 -0.432406,0.281325 -0.229228,0.130243 -0.468875,0.218808 -0.234437,0.08335 -0.453245,0.08335 -0.203179,0 -0.395939,-0.07814 -0.18755,-0.08336 -0.354261,-0.307374 -0.161501,-0.224018 -0.286534,-0.625166 -0.125033,-0.401148 -0.197969,-1.041943 -0.0052,-0.06252 -0.01563,-0.19276 -0.0052,-0.135452 -0.01563,-0.265695 -0.0052,-0.135453 -0.01563,-0.234438 -0.01042,-0.09898 -0.02084,-0.09898 -0.04168,0 -0.140662,0.125033 -0.09378,0.125033 -0.229228,0.333422 -0.130242,0.203179 -0.286534,0.474084 -0.156291,0.265696 -0.323002,0.55223 -0.208389,0.36468 -0.395939,0.656425 -0.18234,0.286534 -0.349051,0.484503 -0.161501,0.19276 -0.317793,0.296954 -0.151081,0.104194 -0.307373,0.104194 -0.239647,0 -0.390729,-0.08857 -0.151082,-0.09378 -0.239647,-0.281325 -0.08857,-0.192759 -0.125033,-0.489713 -0.03647,-0.302163 -0.04689,-0.713731 -0.01563,-0.687683 -0.04689,-1.073202 -0.02605,-0.385519 -0.07815,-0.385519 -0.06252,0 -0.208388,0.161501 -0.145872,0.161502 -0.349051,0.442826 -0.19797,0.281325 -0.437617,0.661634 -0.234437,0.38031 -0.484503,0.817926 -0.06252,0.114614 -0.151082,0.265695 -0.08856,0.151082 -0.18234,0.307374 -0.09378,0.156291 -0.18755,0.302163 -0.08857,0.145872 -0.161501,0.250067 -0.09378,0.135452 -0.229228,0.208388 -0.135452,0.06773 -0.286534,0.06773 -0.213599,0 -0.36468,-0.08857 -0.151082,-0.09378 -0.244857,-0.250067 -0.09378,-0.156291 -0.140662,-0.36989 -0.04168,-0.213598 -0.04168,-0.453245 0,-0.213599 0.01042,-0.385519 0.01042,-0.171921 0.03126,-0.343841 0.02084,-0.177131 0.04689,-0.36989 0.03126,-0.19276 0.06773,-0.442826 0.03126,-0.218808 0.04689,-0.458455 0.01563,-0.244857 0.03126,-0.474085 0.01563,-0.234437 0.03647,-0.432406 0.02084,-0.197969 0.05731,-0.328212 0.02605,-0.08857 0.06773,-0.18755 0.04168,-0.104194 0.119824,-0.18755 0.07815,-0.08857 0.197969,-0.145872 0.119824,-0.06252 0.296954,-0.06252 0.161501,0 0.260486,0.06252 0.09898,0.05731 0.151082,0.161501 0.0521,0.09898 0.06773,0.234437 0.02084,0.130243 0.02084,0.276115 0,0.125034 -0.03647,0.338632 -0.03126,0.213598 -0.08336,0.474084 -0.04689,0.255276 -0.109404,0.536601 -0.06252,0.276115 -0.119823,0.531391 -0.0521,0.255276 -0.09378,0.463665 -0.04168,0.203179 -0.05731,0.317793 0.01042,-0.02084 0.05731,-0.104195 0.0521,-0.08335 0.119823,-0.203178 0.07294,-0.119824 0.151082,-0.255277 0.07815,-0.135452 0.145872,-0.255276 0.07294,-0.119823 0.125033,-0.208388 0.0521,-0.08857 0.06252,-0.109404 0.09378,-0.156292 0.218808,-0.349052 0.125033,-0.197969 0.260486,-0.395938 0.135453,-0.203179 0.265696,-0.385519 0.135452,-0.18234 0.244856,-0.307373 0.234438,-0.265696 0.494923,-0.401149 0.265696,-0.135452 0.56265,-0.135452 0.317793,0 0.531391,0.218808 0.213598,0.218808 0.286534,0.573069 0.02605,0.130243 0.04168,0.328212 0.01563,0.197969 0.02084,0.416777 0.01042,0.213599 0.01563,0.432407 0.0052,0.218808 0.0052,0.390729 0.0052,0.17192 0.01042,0.281324 0.0052,0.109404 0.02084,0.109404 0.04689,0 0.135453,-0.130243 0.08857,-0.130242 0.197969,-0.328212 0.109404,-0.197969 0.229228,-0.427197 0.119823,-0.229227 0.229227,-0.421987 0.18234,-0.307373 0.385519,-0.588698 0.203179,-0.286534 0.401148,-0.500132 0.203179,-0.218809 0.385519,-0.343842 0.182341,-0.130243 0.323003,-0.130243 0.09898,0 0.203179,0.02084 0.104194,0.02084 0.197969,0.06252 0.09899,0.03647 0.17713,0.09378 0.07815,0.0521 0.119824,0.119823 0.08856,0.140663 0.130243,0.307373 0.04168,0.166711 0.05731,0.36989 0.02084,0.203179 0.02605,0.448036 0.01042,0.244857 0.04168,0.541811 0.05731,0.54181 0.166711,0.849183 0.109404,0.307374 0.312583,0.307374 0.08856,0 0.229228,-0.06252 0.145872,-0.06773 0.312583,-0.166711 0.17192,-0.104194 0.349051,-0.229227 0.18234,-0.125034 0.338631,-0.250067 0.171921,-0.135452 0.328212,-0.276115 0.156292,-0.145872 0.307374,-0.296954 0.156291,-0.151081 0.312583,-0.312583 0.161501,-0.166711 0.338631,-0.349051 0.109404,-0.109404 0.250067,-0.109404 0.166711,0 0.166711,0.239647 z m 2.406891,2.386051 q 0,0.270905 -0.104195,0.5366 -0.09898,0.260486 -0.265695,0.494924 -0.166711,0.234437 -0.385519,0.432406 -0.218808,0.197969 -0.453246,0.338632 -0.234437,0.140662 -0.468874,0.218808 -0.234437,0.08336 -0.437616,0.08336 -0.317793,0 -0.463665,-0.156291 -0.145872,-0.151082 -0.145872,-0.411568 0,-0.125033 0.03647,-0.239647 0.04168,-0.109404 0.114613,-0.192759 0.07294,-0.08857 0.177131,-0.135453 0.109404,-0.0521 0.244857,-0.0521 h 0.09377 q 0.104195,0 0.234438,-0.03126 0.130243,-0.03126 0.302163,-0.171921 0.151082,-0.125033 0.218808,-0.296954 0.07294,-0.17713 0.07294,-0.307373 0,-0.114614 -0.05731,-0.213599 -0.05731,-0.104194 -0.151082,-0.203179 -0.09378,-0.09898 -0.218808,-0.192759 -0.119824,-0.09899 -0.255276,-0.197969 -0.177131,-0.135453 -0.359471,-0.281325 -0.17713,-0.151082 -0.323002,-0.317793 -0.145872,-0.171921 -0.234438,-0.35947 -0.08857,-0.19276 -0.08857,-0.411568 0,-0.218808 0.07815,-0.458455 0.07815,-0.239647 0.208389,-0.474084 0.135452,-0.234438 0.307373,-0.442826 0.171921,-0.208389 0.354261,-0.36989 0.187549,-0.161501 0.375099,-0.255276 0.18755,-0.09378 0.349051,-0.09378 0.265696,0 0.401148,0.130243 0.140663,0.130243 0.140663,0.416777 0,0.135453 -0.07294,0.281325 -0.06773,0.140662 -0.177131,0.281324 -0.104194,0.135453 -0.239647,0.265696 -0.130242,0.130243 -0.255276,0.239647 -0.109404,0.09898 -0.208388,0.161501 -0.09377,0.06252 -0.177131,0.135453 0.0521,0.09378 0.135453,0.192759 0.08335,0.09378 0.18234,0.18755 0.09898,0.08856 0.197969,0.171921 0.104195,0.08335 0.19276,0.156291 0.192759,0.156292 0.390729,0.328213 0.197969,0.17192 0.35947,0.36468 0.166711,0.18755 0.270905,0.401148 0.104195,0.208389 0.104195,0.448036 z"
     id="text1-1"
     style="font-weight:bold;font-size:10.6695px;line-height:22.1;font-family:'Segoe Script';-inkscape-font-specification:'Segoe Script Bold';fill:#ffffff;stroke-width:0.630088"
     transform="scale(0.9826566,1.0176495)"
     aria-label="dreams" />
  <path
     style="fill:#ffffff;stroke-width:0.630088;stroke-dasharray:none"
     id="path2-2"
     d="m 64.192548,48.462537 -5.575155,-1.715099 -3.945593,4.406619 -0.139992,-5.994208 -5.286014,-2.50535 5.48864,-1.989524 0.678656,-5.955017 3.532155,4.764619 5.705445,-1.175048 -3.305642,4.934212 z" />
  <path
     d="m 43.057825,28.394943 q 0.07294,-0.09378 0.145872,-0.213598 0.07815,-0.119824 0.145872,-0.260486 -0.06773,-0.08336 -0.104194,-0.18234 -0.03647,-0.09898 -0.03647,-0.250067 0,-0.114613 0.01042,-0.197969 0.01042,-0.08856 0.01042,-0.156291 0,-0.07294 -0.04168,-0.182341 -0.04168,-0.109404 -0.104194,-0.208388 -0.05731,-0.104195 -0.125034,-0.177131 -0.06773,-0.07294 -0.125033,-0.07294 -0.07815,0 -0.239647,0.140663 -0.156291,0.140662 -0.349051,0.35947 -0.18755,0.213599 -0.385519,0.474084 -0.197969,0.260486 -0.349051,0.505343 -0.166711,0.270905 -0.302164,0.510552 -0.130242,0.239647 -0.208388,0.411568 -0.135453,0.302163 -0.19276,0.526181 -0.0521,0.224018 -0.0521,0.416778 0,0.323002 0.114614,0.323002 0.104194,0 0.281325,-0.08336 0.18234,-0.08857 0.385519,-0.218808 0.208388,-0.130243 0.411567,-0.286535 0.203179,-0.161501 0.343842,-0.307373 0.291744,-0.302164 0.474084,-0.515762 0.18755,-0.218808 0.291744,-0.354261 z m 5.590026,-1.323268 q 0,0.104194 -0.07815,0.270905 -0.07294,0.161501 -0.203179,0.359471 -0.125034,0.197969 -0.291745,0.416777 -0.166711,0.218808 -0.349051,0.432407 -0.18234,0.213598 -0.36989,0.411567 -0.18234,0.19276 -0.343841,0.343842 -0.171921,0.156291 -0.390729,0.35426 -0.213598,0.19276 -0.458455,0.36468 -0.239647,0.171921 -0.494923,0.291745 -0.250066,0.114613 -0.489713,0.114613 -0.177131,0 -0.343842,-0.08336 -0.234437,-0.109404 -0.385519,-0.333422 -0.151081,-0.224018 -0.244856,-0.494923 -0.08857,-0.276115 -0.125034,-0.567859 -0.03647,-0.296954 -0.04689,-0.547021 -0.104194,0.208389 -0.265696,0.453246 -0.161501,0.239647 -0.35426,0.479294 -0.19276,0.239647 -0.401148,0.463665 -0.203179,0.224017 -0.401149,0.406358 -0.515762,0.474084 -1.062782,0.713731 -0.54702,0.239647 -1.140928,0.239647 -0.208389,0 -0.36468,-0.104195 -0.151082,-0.109404 -0.250067,-0.270905 -0.09898,-0.166711 -0.145872,-0.35947 -0.04689,-0.19797 -0.04689,-0.3751 0,-0.244857 0.02084,-0.421987 0.02605,-0.17713 0.06773,-0.296954 0.213598,-0.635585 0.489713,-1.208654 0.281325,-0.578279 0.677264,-1.130509 0.109404,-0.156291 0.260486,-0.338631 0.151081,-0.182341 0.317792,-0.354261 0.171921,-0.171921 0.349051,-0.317793 0.177131,-0.151082 0.343842,-0.234437 0.203179,-0.104195 0.479294,-0.156292 0.281324,-0.05731 0.651214,-0.05731 0.140663,0 0.255276,0.08857 0.114614,0.08336 0.208389,0.224017 0.09378,0.135453 0.161501,0.317793 0.07294,0.177131 0.114614,0.36468 0.02605,-0.151081 0.0521,-0.35426 0.02605,-0.203179 0.04689,-0.427197 0.02605,-0.224018 0.04689,-0.448036 0.02605,-0.224018 0.04168,-0.416777 0.02084,-0.203179 0.04168,-0.463665 0.02605,-0.265696 0.0521,-0.510552 0.03126,-0.250067 0.06252,-0.442826 0.03647,-0.19276 0.07294,-0.255276 0.07294,-0.135453 0.208389,-0.208389 0.140662,-0.07294 0.36468,-0.07294 0.09898,0 0.177131,0.02084 0.07814,0.01563 0.166711,0.05731 0.276115,0.109404 0.276115,0.307373 0,0.08336 -0.03647,0.291744 -0.03647,0.203179 -0.09898,0.55223 -0.06252,0.349051 -0.151082,0.859603 -0.08856,0.505343 -0.192759,1.198235 -0.06252,0.406358 -0.09378,0.755409 -0.03126,0.349051 -0.03126,0.708522 0,0.03126 0.0052,0.166711 0.01042,0.130243 0.02605,0.307373 0.02084,0.17713 0.04689,0.3751 0.03126,0.197969 0.07294,0.36468 0.04168,0.161501 0.09899,0.270905 0.06252,0.109404 0.135452,0.109404 0.119824,0 0.265696,-0.06773 0.151082,-0.07294 0.312583,-0.18234 0.161501,-0.114614 0.328212,-0.260486 0.166711,-0.145872 0.323003,-0.296954 0.156291,-0.151082 0.296954,-0.296954 0.140662,-0.145872 0.244856,-0.255276 0.296954,-0.312583 0.578279,-0.604327 0.281325,-0.296954 0.505342,-0.520972 0.01563,-0.01563 0.05731,-0.02605 0.04689,-0.01563 0.09378,-0.02605 0.04689,-0.01042 0.08857,-0.01563 0.04168,-0.0052 0.0521,-0.0052 0.04168,0 0.06252,0.03126 0.02605,0.03126 0.03647,0.08336 0.01042,0.04689 0.01042,0.109404 0.0052,0.06252 0.0052,0.130243 z m 8.179256,0.109404 q 0,0.291744 -0.208389,0.646005 -0.203179,0.349051 -0.536601,0.703312 -0.328212,0.35426 -0.739779,0.687682 -0.406358,0.333422 -0.817926,0.593908 -0.406358,0.255276 -0.771038,0.411568 -0.36468,0.156291 -0.604327,0.156291 -0.333422,0 -0.567859,-0.140662 -0.229228,-0.145872 -0.385519,-0.380309 -0.151082,-0.239647 -0.239647,-0.541811 -0.08857,-0.307373 -0.130243,-0.630376 -0.07815,0.18755 -0.208389,0.406358 -0.130243,0.218808 -0.281325,0.432407 -0.151082,0.213598 -0.307373,0.406358 -0.151082,0.187549 -0.281325,0.323002 -0.18234,0.19276 -0.401148,0.3751 -0.218808,0.17713 -0.468875,0.312583 -0.250066,0.135452 -0.531391,0.218808 -0.276115,0.07815 -0.578278,0.07815 -0.255276,0 -0.453246,-0.104195 -0.192759,-0.109404 -0.323002,-0.281325 -0.130243,-0.17192 -0.197969,-0.390728 -0.06252,-0.224018 -0.06252,-0.448036 0,-0.197969 0.03126,-0.406358 0.03647,-0.213598 0.07815,-0.427197 0.04168,-0.218808 0.07815,-0.427196 0.04168,-0.213599 0.05731,-0.411568 0.01042,-0.151082 0.02084,-0.323003 0.01042,-0.17192 0.02084,-0.343841 0.01042,-0.17713 0.02605,-0.349051 0.02084,-0.17713 0.04689,-0.328212 0.02084,-0.109404 0.05731,-0.208389 0.04168,-0.09898 0.114614,-0.17192 0.07294,-0.07815 0.18234,-0.119824 0.114614,-0.04689 0.276115,-0.04689 0.328212,0 0.458455,0.197969 0.135453,0.192759 0.135453,0.588698 0,0.119823 -0.01563,0.276115 -0.01563,0.156291 -0.04168,0.328212 -0.02605,0.166711 -0.06252,0.338632 -0.03126,0.17192 -0.07294,0.328212 -0.08857,0.349051 -0.166711,0.682473 -0.07815,0.328212 -0.07815,0.588698 0,0.166711 0.05731,0.276115 0.06252,0.109404 0.151081,0.109404 0.224018,0 0.463665,-0.135453 0.244857,-0.140662 0.474085,-0.343841 0.229227,-0.208389 0.432406,-0.448036 0.208389,-0.244857 0.354261,-0.448035 0.135452,-0.18755 0.270905,-0.463665 0.140662,-0.276115 0.270905,-0.578279 0.135453,-0.307373 0.260486,-0.604327 0.125033,-0.302164 0.224018,-0.531391 0.135453,-0.307373 0.312583,-0.474084 0.17713,-0.166711 0.343841,-0.166711 0.19797,0 0.291745,0.07814 0.09377,0.07815 0.09377,0.286535 0,0.08335 -0.02084,0.255276 -0.02084,0.171921 -0.04689,0.36468 -0.02605,0.18755 -0.04689,0.36468 -0.02084,0.171921 -0.02084,0.260486 0,0.08336 0,0.203179 0.0052,0.119824 0.01042,0.250067 0.0052,0.125033 0.01563,0.244856 0.01563,0.119824 0.03126,0.203179 0.02084,0.08856 0.06773,0.229228 0.04689,0.140662 0.114614,0.276115 0.07294,0.130243 0.156291,0.229227 0.08336,0.09378 0.177131,0.09378 0.270905,0 0.573069,-0.140662 0.307373,-0.140662 0.625166,-0.36468 0.317792,-0.229228 0.635585,-0.515762 0.323002,-0.286535 0.625166,-0.573069 0.125033,-0.119824 0.244857,-0.239647 0.125033,-0.125033 0.239647,-0.218808 0.114614,-0.09898 0.213598,-0.161501 0.09899,-0.06252 0.171921,-0.06252 0.08335,0 0.130243,0.0521 0.0521,0.0521 0.0521,0.09378 z m 4.344903,0.411568 q 0,0.140662 -0.125033,0.35426 -0.125033,0.208389 -0.317793,0.442826 -0.18755,0.234438 -0.421987,0.479294 -0.234437,0.239647 -0.453245,0.453246 -0.130243,0.125033 -0.385519,0.349051 -0.255276,0.218808 -0.573069,0.484503 -0.312583,0.265696 -0.656424,0.55223 -0.343842,0.281325 -0.651215,0.526182 -0.302164,0.244856 -0.536601,0.427197 -0.234437,0.18234 -0.333422,0.250066 -0.323002,0.213598 -0.604327,0.328212 -0.276115,0.114614 -0.494923,0.114614 -0.18234,0 -0.307373,-0.03647 -0.125034,-0.03126 -0.203179,-0.08857 -0.07815,-0.0521 -0.114614,-0.125033 -0.03647,-0.06773 -0.03647,-0.140663 0,-0.18234 0.06773,-0.328212 0.06773,-0.140662 0.208389,-0.265696 0.145872,-0.125033 0.36468,-0.239647 0.224018,-0.119823 0.526181,-0.244856 0.19797,-0.07815 0.354261,-0.151082 0.161501,-0.07294 0.276115,-0.156292 0.119824,-0.08856 0.18234,-0.197969 0.06252,-0.109404 0.06252,-0.265695 0,-0.03647 -0.0521,-0.135453 -0.04689,-0.09898 -0.125034,-0.229228 -0.07814,-0.130242 -0.17713,-0.281324 -0.09377,-0.156292 -0.18755,-0.302164 -0.09378,-0.151082 -0.17713,-0.281325 -0.08336,-0.130242 -0.130243,-0.218808 -0.213598,-0.395938 -0.213598,-0.807506 0,-0.17713 0.03126,-0.36468 0.03126,-0.18755 0.104194,-0.380309 0.06773,-0.239647 0.218808,-0.468875 0.156292,-0.229227 0.343842,-0.406358 0.187549,-0.18234 0.375099,-0.291744 0.19276,-0.109404 0.333422,-0.109404 0.18755,0 0.307373,0.03647 0.119824,0.03126 0.182341,0.104194 0.06773,0.06773 0.09377,0.177131 0.02605,0.104194 0.02605,0.255276 0,0.125033 -0.06252,0.244857 -0.06252,0.119823 -0.151081,0.224017 -0.08857,0.104195 -0.18755,0.19276 -0.09898,0.08857 -0.171921,0.156291 -0.109404,0.09899 -0.208388,0.18755 -0.09899,0.08336 -0.156292,0.145872 0.0052,0.328213 0.161501,0.604328 0.07815,0.135452 0.19276,0.333421 0.119823,0.19797 0.239647,0.406358 0.125033,0.203179 0.234437,0.390729 0.109404,0.18755 0.171921,0.296954 0.07814,-0.03647 0.224018,-0.135453 0.151081,-0.104194 0.349051,-0.244856 0.197969,-0.145872 0.421987,-0.323003 0.229227,-0.17713 0.458455,-0.36468 0.229227,-0.18755 0.442826,-0.36989 0.213598,-0.18755 0.385519,-0.354261 0.145872,-0.140662 0.239647,-0.239647 0.09898,-0.104194 0.166711,-0.166711 0.07294,-0.06773 0.125033,-0.09898 0.0521,-0.03647 0.114614,-0.03647 0.06773,0 0.109404,0.0521 0.04689,0.04689 0.07294,0.109404 0.02605,0.05731 0.03647,0.109404 0.01042,0.0521 0.01042,0.06252 z m 3.698899,-0.974217 q 0,0.130242 -0.07814,0.218808 -0.07294,0.08336 -0.18234,0.135452 -0.109404,0.0521 -0.234438,0.07815 -0.125033,0.02084 -0.229227,0.03126 -0.390729,0.02605 -0.781458,0.07294 -0.390728,0.04168 -0.708521,0.08336 -0.312583,0.03647 -0.515762,0.06773 -0.203179,0.02605 -0.218808,0.02605 -0.03647,0.140662 -0.09378,0.354261 -0.0521,0.213598 -0.114614,0.463664 -0.05731,0.244857 -0.114614,0.505343 -0.05731,0.255276 -0.109404,0.489713 -0.04689,0.234438 -0.07815,0.427197 -0.02605,0.18755 -0.02605,0.296954 0,0.08857 0.01563,0.224018 0.02084,0.130243 0.06773,0.255276 0.04689,0.125033 0.125034,0.218808 0.07814,0.08856 0.197969,0.08856 0.08335,0 0.203179,-0.03647 0.125033,-0.03647 0.270905,-0.114614 0.151082,-0.07815 0.317793,-0.197969 0.166711,-0.125033 0.333422,-0.302163 0.0521,-0.05731 0.119823,-0.119824 0.06773,-0.06252 0.145872,-0.109404 0.07815,-0.0521 0.166711,-0.08336 0.09378,-0.03647 0.19276,-0.03647 0.156291,0 0.213598,0.06773 0.05731,0.06773 0.05731,0.171921 0,0.208388 -0.119824,0.380309 -0.119823,0.171921 -0.302163,0.385519 -0.08336,0.09899 -0.265696,0.270905 -0.17713,0.166711 -0.427196,0.333422 -0.244857,0.161501 -0.55223,0.281325 -0.302164,0.125033 -0.640796,0.125033 -0.328212,0 -0.557439,-0.08856 -0.224018,-0.08336 -0.3751,-0.224018 -0.145872,-0.135453 -0.229228,-0.312583 -0.08336,-0.18234 -0.125033,-0.36989 -0.03647,-0.18755 -0.04689,-0.36989 -0.0052,-0.18234 -0.0052,-0.328212 0,-0.156292 0.03126,-0.35947 0.03647,-0.208389 0.08336,-0.437617 0.04689,-0.229227 0.104194,-0.468874 0.06252,-0.244857 0.109404,-0.463665 0.04689,-0.224018 0.07815,-0.411568 0.03647,-0.187549 0.03647,-0.317792 0,-0.03126 -0.01042,-0.05731 -0.0052,-0.02605 -0.03647,-0.04168 -0.03126,-0.02084 -0.09898,-0.02605 -0.06773,-0.01042 -0.18755,-0.01042 -0.135453,0 -0.291744,-0.0052 -0.151082,-0.01042 -0.281325,-0.05731 -0.130243,-0.04689 -0.218808,-0.145872 -0.08336,-0.104194 -0.08336,-0.291744 0,-0.119823 0.03647,-0.197969 0.04168,-0.08336 0.104194,-0.130243 0.06773,-0.0521 0.151082,-0.07294 0.08857,-0.02084 0.18755,-0.02605 l 1.09925,-0.04689 q 0.03126,-0.05731 0.09898,-0.224018 0.06773,-0.166711 0.151081,-0.390729 0.08857,-0.229227 0.177131,-0.484503 0.08857,-0.255277 0.161501,-0.479294 0.104194,-0.323003 0.265696,-0.463665 0.161501,-0.140663 0.427196,-0.140663 0.171921,0 0.265696,0.04689 0.09378,0.04168 0.135453,0.109404 0.04168,0.06773 0.04689,0.156291 0.01042,0.08336 0.01042,0.161502 0,0.02084 -0.03126,0.119823 -0.02605,0.09899 -0.07294,0.244857 -0.04689,0.140662 -0.104194,0.312583 -0.05731,0.171921 -0.119824,0.349051 -0.05731,0.171921 -0.114614,0.333422 -0.0521,0.156291 -0.08857,0.270905 0.06252,-0.0052 0.203179,-0.02084 0.145872,-0.01563 0.333422,-0.03126 0.18755,-0.02084 0.390729,-0.03647 0.208389,-0.02084 0.385519,-0.03647 0.18234,-0.02084 0.312583,-0.03126 0.135453,-0.01042 0.17713,-0.01042 0.281325,0 0.453246,0.03126 0.17713,0.02605 0.270905,0.08336 0.09377,0.05731 0.125033,0.140662 0.03126,0.08336 0.03126,0.19797 z"
     id="text4-7"
     style="font-weight:bold;font-size:10.6695px;line-height:22.1;font-family:'Segoe Script';-inkscape-font-specification:'Segoe Script Bold';fill:#ffffff;stroke-width:0.630088"
     transform="scale(0.9826566,1.0176495)"
     aria-label="dust" />
  <path
     d="m 27.663819,32.366527 q 0,0.197969 -0.04168,0.401148 -0.03647,0.19797 -0.104194,0.385519 -0.06252,0.18755 -0.151082,0.359471 -0.08856,0.166711 -0.18755,0.307373 -0.01563,0.02605 -0.05731,0.07815 -0.03647,0.04689 -0.08857,0.09898 -0.0521,0.04689 -0.109404,0.08335 -0.0521,0.03647 -0.104194,0.03647 -0.114614,0 -0.166711,-0.04168 -0.0521,-0.04168 -0.0521,-0.151081 0,-0.05731 0.01042,-0.125034 0.01563,-0.06773 0.04168,-0.156291 0.02084,-0.08336 0.03647,-0.161501 0.02084,-0.08336 0.03126,-0.18234 0.01042,-0.09898 0.01563,-0.218809 0.01042,-0.125033 0.01042,-0.286534 0,-0.109404 -0.02084,-0.203179 -0.01563,-0.09898 -0.04689,-0.171921 -0.03126,-0.07814 -0.06773,-0.119823 -0.03647,-0.04689 -0.06773,-0.04689 -0.08856,0 -0.166711,0.07294 -0.07294,0.06773 -0.151082,0.203179 -0.07294,0.130243 -0.151082,0.328213 -0.07294,0.197969 -0.161501,0.448035 -0.0521,0.156292 -0.109404,0.427197 -0.05731,0.265696 -0.104194,0.567859 -0.04689,0.302164 -0.08336,0.599118 -0.03647,0.296954 -0.0521,0.510552 0.213599,-0.02605 0.463665,-0.06252 0.250066,-0.04168 0.505343,-0.08336 0.255276,-0.04689 0.500132,-0.08856 0.244857,-0.04689 0.442826,-0.08336 0.203179,-0.04168 0.343842,-0.06773 0.140662,-0.03126 0.18234,-0.04168 0.07294,-0.01563 0.17192,-0.04168 0.104195,-0.03126 0.218809,-0.06252 0.114613,-0.03126 0.229227,-0.0521 0.119824,-0.02084 0.229228,-0.02084 0.156291,0.07815 0.187549,0.130243 0.03647,0.0521 0.03647,0.09377 0,0.08857 -0.0521,0.17713 -0.0521,0.08335 -0.130243,0.161501 -0.07815,0.07294 -0.166711,0.130243 -0.08856,0.0521 -0.156291,0.07815 -0.401148,0.156291 -0.823135,0.286534 -0.416778,0.130243 -0.817926,0.234438 -0.401148,0.104194 -0.771038,0.187549 -0.36468,0.07815 -0.672054,0.130243 -0.02605,0.317793 -0.06773,0.666844 -0.03647,0.343841 -0.07815,0.692892 -0.04168,0.343842 -0.08857,0.677264 -0.04689,0.333422 -0.09377,0.625166 -0.04168,0.291744 -0.08857,0.526181 -0.04168,0.239647 -0.07815,0.390729 -0.114613,0.500133 -0.307373,0.875232 -0.18755,0.38031 -0.427197,0.630376 -0.234437,0.255276 -0.515762,0.385519 -0.281324,0.130243 -0.588698,0.130243 -0.224018,0 -0.390729,-0.08857 -0.16671,-0.08336 -0.276115,-0.203179 -0.114613,-0.114614 -0.16671,-0.239647 -0.05731,-0.119824 -0.05731,-0.19276 0,-0.255276 0.109404,-0.349051 0.104194,-0.09378 0.260486,-0.09378 0.08856,0 0.16671,0.02605 0.07294,0.02605 0.140663,0.0521 0.06773,0.03126 0.130243,0.05731 0.06773,0.02605 0.135452,0.02605 0.156292,0 0.286535,-0.140663 0.130243,-0.135452 0.234437,-0.328212 0.05731,-0.09898 0.119824,-0.349051 0.06252,-0.250066 0.130243,-0.593908 0.06773,-0.338631 0.125033,-0.73457 0.06252,-0.401148 0.109404,-0.797086 0.04689,-0.395939 0.07294,-0.7502 0.03126,-0.35947 0.03126,-0.614746 0,-0.08856 0,-0.109404 0,-0.02084 -0.0052,-0.02084 -0.03126,0 -0.08336,0.01042 -0.0521,0.0052 -0.114614,0.0052 -0.119823,0 -0.218808,-0.04168 -0.09899,-0.04168 -0.09899,-0.18234 0,-0.18755 0.114614,-0.338631 0.119824,-0.151082 0.270905,-0.255277 0.04689,-0.03126 0.104195,-0.09378 0.06252,-0.06252 0.109404,-0.140662 0.04689,-0.07815 0.08857,-0.317793 0.04689,-0.244856 0.104194,-0.578278 0.06252,-0.338632 0.135453,-0.73457 0.07294,-0.401148 0.171921,-0.781458 0.114613,-0.432406 0.291744,-0.765828 0.17713,-0.333422 0.401148,-0.56265 0.224018,-0.234437 0.489713,-0.35426 0.265696,-0.119824 0.55744,-0.119824 0.244857,0 0.432407,0.07815 0.192759,0.07815 0.323002,0.218808 0.135453,0.140662 0.203179,0.333422 0.07294,0.18755 0.07294,0.416777 z m 5.418106,2.828877 q 0,0.04689 -0.02084,0.125033 -0.02084,0.07814 -0.06252,0.156291 -0.04168,0.07815 -0.109404,0.135453 -0.06252,0.05731 -0.156291,0.06252 -0.02084,0 -0.08857,0 -0.06773,-0.0052 -0.145872,-0.01042 -0.07814,-0.0052 -0.145872,-0.0052 -0.06773,-0.0052 -0.09898,-0.0052 -0.870023,0.04689 -1.505609,0.625166 -0.145872,0.130243 -0.302163,0.307373 -0.151082,0.17713 -0.302164,0.390729 -0.145872,0.208388 -0.281324,0.448035 -0.135453,0.239647 -0.244857,0.500133 -0.08856,0.213599 -0.171921,0.442826 -0.08336,0.224018 -0.145872,0.474084 -0.03647,0.135453 -0.05731,0.239647 -0.01563,0.09898 -0.05731,0.234438 -0.02605,0.08335 -0.08856,0.140662 -0.06252,0.06252 -0.145872,0.09898 -0.08336,0.04168 -0.17713,0.06252 -0.08857,0.02084 -0.177131,0.02605 -0.333422,0 -0.458455,-0.302164 -0.125033,-0.302163 -0.125033,-0.901281 0,-0.135452 0,-0.255276 0.0052,-0.119823 0.01042,-0.239647 0.01042,-0.125033 0.02084,-0.255276 0.01042,-0.135453 0.02605,-0.302164 0.02084,-0.244856 0.05731,-0.578278 0.03647,-0.338632 0.07815,-0.682473 0.04168,-0.349051 0.08856,-0.672054 0.0521,-0.323002 0.104194,-0.54702 0.06252,-0.276115 0.208389,-0.432406 0.151082,-0.156292 0.437616,-0.156292 0.08336,0 0.166711,0.04689 0.08856,0.04168 0.156291,0.104194 0.06773,0.06252 0.114614,0.135453 0.04689,0.07294 0.0521,0.130242 l 0.0052,0.09378 q 0,0.145872 -0.02605,0.343842 -0.02605,0.197969 -0.07294,0.421987 -0.04168,0.218808 -0.09377,0.448035 -0.04689,0.224018 -0.09899,0.432407 -0.04689,0.203179 -0.08856,0.380309 -0.03647,0.171921 -0.05731,0.286535 0.18234,-0.385519 0.390729,-0.73978 0.208388,-0.359471 0.448035,-0.661634 0.239647,-0.307374 0.515762,-0.54702 0.276115,-0.239647 0.593908,-0.38552 0.250066,-0.114613 0.458455,-0.17192 0.208389,-0.06252 0.3751,-0.06252 0.197969,0 0.406358,0.04168 0.213598,0.04168 0.385519,0.125033 0.17713,0.07815 0.291744,0.19276 0.114614,0.114613 0.114614,0.260486 z m 7.533251,-0.38031 q 0,0.09898 -0.06773,0.213599 -0.06252,0.109404 -0.166711,0.224017 -0.09898,0.109404 -0.229227,0.218809 -0.130243,0.109404 -0.260486,0.203178 -0.130243,0.08857 -0.250066,0.156292 -0.114614,0.06773 -0.19276,0.104194 -0.140662,0.05731 -0.36468,0.109404 -0.218808,0.04689 -0.463665,0.08336 -0.239647,0.03126 -0.468875,0.0521 -0.224017,0.02084 -0.380309,0.02084 -0.03647,0 -0.104194,-0.0052 -0.06252,-0.01042 -0.140663,-0.02605 -0.07294,-0.01563 -0.151081,-0.03647 -0.07294,-0.02605 -0.125034,-0.06252 0.05731,0.119823 0.06252,0.265696 0.01042,0.140662 0.01042,0.281324 0,0.09899 -0.02084,0.234438 -0.02084,0.135452 -0.05731,0.276115 -0.03126,0.140662 -0.07815,0.270905 -0.04689,0.130243 -0.09898,0.218808 -0.130243,0.224018 -0.281324,0.411568 -0.145872,0.187549 -0.328213,0.349051 -0.18234,0.161501 -0.411567,0.302163 -0.229228,0.140663 -0.531391,0.276115 -0.323003,0.140663 -0.646005,0.197969 -0.323003,0.0521 -0.666844,0.0521 -0.255276,0 -0.453245,-0.130243 -0.19797,-0.135453 -0.333422,-0.359471 -0.135453,-0.224018 -0.208389,-0.515762 -0.06773,-0.291744 -0.06773,-0.609537 0,-0.07814 0.01042,-0.192759 0.01563,-0.119824 0.03647,-0.239647 0.02605,-0.119824 0.0521,-0.234437 0.03126,-0.114614 0.05731,-0.19276 0.07294,-0.218808 0.208389,-0.500133 0.140662,-0.281325 0.328212,-0.573069 0.18755,-0.296954 0.416777,-0.578278 0.229228,-0.286535 0.484504,-0.505343 0.260486,-0.224018 0.536601,-0.35947 0.281325,-0.135453 0.562649,-0.135453 0.119824,0 0.19276,0.02605 0.07294,0.02084 0.119823,0.06252 0.04689,0.03647 0.08336,0.08857 0.04168,0.04689 0.08856,0.09378 0.03647,-0.01042 0.07294,-0.01563 0.04168,-0.0052 0.08336,-0.0052 0.161501,0 0.317792,0.125033 0.156292,0.125033 0.317793,0.276115 0.07294,0.06773 0.145872,0.140662 0.07815,0.06773 0.140662,0.125033 0.06252,0.0521 0.109405,0.08857 0.0521,0.03126 0.07294,0.03126 0.135452,0 0.291744,0 0.161501,-0.0052 0.323002,-0.01042 0.166711,-0.01042 0.317793,-0.02605 0.156291,-0.01563 0.281325,-0.03647 0.01563,-0.0052 0.135452,-0.03126 0.119824,-0.03126 0.286535,-0.07294 0.17192,-0.04689 0.36989,-0.09898 0.197969,-0.0521 0.36468,-0.09378 0.17192,-0.04689 0.291744,-0.07294 0.125033,-0.03126 0.145872,-0.03126 0.104194,0 0.166711,0.02605 0.06252,0.02605 0.06252,0.145872 z m -6.012014,3.474881 q 0.421987,0 0.74499,-0.224017 0.328212,-0.224018 0.55223,-0.593908 0.224018,-0.3751 0.343841,-0.849184 0.125033,-0.479294 0.130243,-0.984637 -0.03647,-0.07814 -0.109404,-0.161501 -0.06773,-0.08336 -0.156292,-0.145872 -0.08857,-0.06773 -0.18234,-0.109404 -0.09378,-0.04168 -0.17192,-0.04168 -0.125034,0 -0.270906,0.09898 -0.145872,0.09898 -0.270905,0.203179 -0.125033,0.104194 -0.250066,0.276115 -0.119824,0.166711 -0.224018,0.3751 -0.104195,0.208388 -0.19276,0.442826 -0.08857,0.229227 -0.151081,0.458455 -0.06252,0.224017 -0.09898,0.437616 -0.03126,0.213598 -0.03126,0.380309 0,0.08336 0.02605,0.161501 0.02605,0.07815 0.06773,0.140663 0.04689,0.06252 0.109405,0.09898 0.06252,0.03647 0.135452,0.03647 z m 15.962573,-1.578544 q 0,0.04689 -0.03126,0.151082 -0.02605,0.104194 -0.07815,0.239647 -0.04689,0.130243 -0.114614,0.281325 -0.06773,0.151081 -0.151081,0.286534 -0.161502,0.265696 -0.338632,0.489713 -0.17713,0.218809 -0.385519,0.38031 -0.208389,0.156291 -0.458455,0.244857 -0.244857,0.08335 -0.541811,0.08335 -0.255276,0 -0.489713,-0.125033 -0.229228,-0.125033 -0.421987,-0.343842 -0.19276,-0.224017 -0.338632,-0.531391 -0.145872,-0.312583 -0.229227,-0.687682 -0.0521,-0.234438 -0.08857,-0.463665 -0.03126,-0.229228 -0.05731,-0.411568 -0.02605,-0.18234 -0.0521,-0.296954 -0.02605,-0.114613 -0.05731,-0.114613 -0.06252,0 -0.156292,0.09377 -0.08856,0.08857 -0.213598,0.286535 -0.125034,0.192759 -0.291744,0.500133 -0.161502,0.307373 -0.36989,0.73457 -0.354261,0.724151 -0.640796,1.088831 -0.286534,0.35947 -0.588698,0.35947 -0.114613,0 -0.224017,-0.04168 -0.109404,-0.04689 -0.19797,-0.114613 -0.08856,-0.07294 -0.156291,-0.166711 -0.06252,-0.09378 -0.09898,-0.19276 -0.07294,-0.197969 -0.140662,-0.479294 -0.06773,-0.286534 -0.109404,-0.666844 -0.03126,-0.281324 -0.06252,-0.526181 -0.02605,-0.250066 -0.0521,-0.432406 -0.02605,-0.182341 -0.0521,-0.281325 -0.02605,-0.104195 -0.0521,-0.104195 -0.04689,0 -0.151082,0.104195 -0.09898,0.09898 -0.234437,0.260486 -0.130243,0.156291 -0.281325,0.35947 -0.151082,0.203179 -0.302164,0.416777 -0.145872,0.208389 -0.276115,0.411568 -0.130243,0.197969 -0.218808,0.354261 -0.06252,0.114614 -0.151082,0.265695 -0.08856,0.151082 -0.18234,0.307374 -0.09378,0.156291 -0.18755,0.302163 -0.08857,0.145872 -0.161501,0.250067 -0.04689,0.06773 -0.156291,0.119823 -0.109404,0.0521 -0.234438,0.08857 -0.125033,0.03126 -0.244856,0.0521 -0.114614,0.01563 -0.177131,0.01563 -0.135452,0 -0.213598,-0.09378 -0.07815,-0.09378 -0.119823,-0.260486 -0.04168,-0.171921 -0.05731,-0.401148 -0.01042,-0.234437 -0.01042,-0.510552 0,-0.213599 0.02084,-0.474085 0.02605,-0.265695 0.06252,-0.55223 0.04168,-0.286534 0.08857,-0.573069 0.04689,-0.286534 0.09378,-0.54181 0.02605,-0.151082 0.04689,-0.312583 0.02605,-0.161501 0.04689,-0.307373 0.02084,-0.151082 0.03126,-0.276115 0.01042,-0.125034 0.01042,-0.203179 0,-0.182341 0.125034,-0.307374 0.125033,-0.125033 0.343841,-0.125033 0.698102,0 0.698102,0.833555 0,0.197969 -0.04689,0.484503 -0.04689,0.281325 -0.114614,0.588698 -0.06773,0.307374 -0.145872,0.604328 -0.07294,0.296954 -0.135453,0.520971 0.203179,-0.328212 0.411568,-0.651214 0.208388,-0.328212 0.406358,-0.619957 0.197969,-0.291744 0.375099,-0.531391 0.18234,-0.244856 0.328212,-0.411567 0.468875,-0.526182 1.057573,-0.526182 0.203179,0 0.338632,0.09898 0.140662,0.09898 0.229227,0.270905 0.09378,0.171921 0.151082,0.401148 0.05731,0.224018 0.09378,0.479294 0.04168,0.255276 0.06773,0.520972 0.02605,0.265696 0.05731,0.515762 0.01563,0.119823 0.02605,0.265696 0.01042,0.140662 0.04168,0.239647 0.02084,-0.03126 0.06773,-0.125034 0.0521,-0.09898 0.114613,-0.234437 0.06773,-0.140662 0.140663,-0.302164 0.07294,-0.161501 0.140662,-0.312583 0.07294,-0.156291 0.135453,-0.286534 0.06252,-0.130243 0.09898,-0.203179 0.19276,-0.36468 0.36989,-0.614747 0.18234,-0.255276 0.364681,-0.411567 0.18234,-0.161501 0.375099,-0.234437 0.19276,-0.07294 0.416778,-0.07294 0.234437,0 0.390728,0.08335 0.161502,0.08335 0.265696,0.224018 0.104194,0.135452 0.166711,0.312583 0.06773,0.17192 0.119823,0.354261 0.03647,0.125033 0.07294,0.338631 0.04168,0.213599 0.07815,0.432407 0.04168,0.213598 0.07294,0.395938 0.03126,0.177131 0.0521,0.234437 0.05731,0.166711 0.119824,0.312583 0.06252,0.145873 0.130243,0.255277 0.07294,0.104194 0.151081,0.166711 0.07815,0.06252 0.166711,0.06252 0.296954,0 0.661634,-0.296954 0.36989,-0.296954 0.776248,-0.875232 0.0521,-0.07294 0.125034,-0.104195 0.07814,-0.03647 0.151081,-0.03647 0.07294,0 0.119824,0.07815 0.04689,0.07815 0.04689,0.166711 z"
     id="text5-1"
     style="font-weight:bold;font-size:10.6695px;line-height:22.1;font-family:'Segoe Script';-inkscape-font-specification:'Segoe Script Bold';fill:#ffffff;stroke-width:0.630088"
     transform="scale(0.9826566,1.0176495)"
     aria-label="from" />
</svg>
